<svg xmlns="http://www.w3.org/2000/svg" width="255" height="345" viewBox="0 0 255 345"><rect width="100%" height="100%" fill="#DDDDDD"/><path fill="#999999" d="M60.89 180.88h6.3q.68 0 1.08.38t.4 1.01v2.52H51.81v-1.39q0-.43.18-.9.18-.46.57-.84l7.46-7.48q.94-.95 1.68-1.82.73-.86 1.23-1.71.49-.85.75-1.73.27-.88.27-1.84 0-.89-.26-1.56-.25-.67-.72-1.13-.47-.46-1.12-.69-.66-.23-1.47-.23-.75 0-1.39.21-.64.22-1.13.6-.49.38-.83.89-.34.51-.51 1.12-.29.79-.75 1.04-.46.26-1.33.12l-2.21-.39q.26-1.77.99-3.1.73-1.34 1.83-2.23 1.09-.89 2.51-1.34 1.42-.45 3.06-.45 1.7 0 3.11.5t2.41 1.42q1 .91 1.56 2.21.57 1.29.57 2.87 0 1.36-.4 2.52-.4 1.15-1.07 2.21-.68 1.05-1.58 2.04-.9.98-1.88 2l-5.55 5.66q.8-.24 1.59-.36.79-.13 1.51-.13Zm17.12-16.86-.87 5.11q.82-.17 1.56-.24.75-.08 1.45-.08 1.94 0 3.42.58 1.47.58 2.48 1.6 1 1.02 1.51 2.38.51 1.37.51 2.95 0 1.96-.69 3.57-.69 1.62-1.91 2.77-1.22 1.14-2.9 1.77-1.67.63-3.65.63-1.15 0-2.19-.24-1.04-.23-1.94-.63-.91-.4-1.69-.92-.77-.52-1.38-1.1l1.29-1.78q.41-.58 1.07-.58.42 0 .87.27.44.27 1.01.6.57.32 1.34.59.77.27 1.86.27 1.16 0 2.04-.37.89-.38 1.47-1.05.59-.67.89-1.59.29-.93.29-2.02 0-2.01-1.16-3.14-1.16-1.13-3.44-1.13-1.75 0-3.59.65l-2.62-.75 2.04-11.93h12.14v1.78q0 .9-.56 1.46-.56.57-1.9.57h-6.75Zm19.72 0-.87 5.11q.82-.17 1.56-.24.75-.08 1.45-.08 1.94 0 3.42.58 1.47.58 2.48 1.6 1 1.02 1.51 2.38.51 1.37.51 2.95 0 1.96-.69 3.57-.69 1.62-1.91 2.77-1.22 1.14-2.9 1.77-1.67.63-3.65.63-1.15 0-2.19-.24-1.04-.23-1.94-.63-.91-.4-1.69-.92-.77-.52-1.38-1.1l1.29-1.78q.41-.58 1.07-.58.42 0 .87.27.44.27 1.01.6.57.32 1.34.59.77.27 1.86.27 1.16 0 2.04-.37.89-.38 1.47-1.05.59-.67.89-1.59.29-.93.29-2.02 0-2.01-1.16-3.14-1.16-1.13-3.44-1.13-1.75 0-3.59.65l-2.62-.75 2.04-11.93h12.14v1.78q0 .9-.56 1.46-.56.57-1.9.57h-6.75Zm38.09 15.14-2.22 2.2-5.77-5.77-5.81 5.8-2.23-2.19 5.82-5.83-5.55-5.55 2.21-2.21 5.55 5.55 5.5-5.51 2.25 2.21-5.53 5.52 5.78 5.78Zm14.15-11.71-2.21-.39q.25-1.77.98-3.1.73-1.34 1.83-2.23 1.1-.89 2.52-1.34 1.42-.45 3.05-.45 1.7 0 3.07.48 1.37.48 2.33 1.34.97.86 1.49 2.02.52 1.15.52 2.5 0 1.17-.26 2.06-.27.89-.76 1.56-.49.66-1.22 1.12-.73.46-1.65.76 2.21.7 3.3 2.13 1.08 1.43 1.08 3.59 0 1.83-.68 3.24-.68 1.41-1.83 2.38-1.16.96-2.68 1.45-1.52.49-3.22.49-1.85 0-3.23-.42-1.38-.43-2.4-1.26-1.02-.83-1.73-2.04-.72-1.21-1.23-2.79l1.86-.76q.73-.31 1.37-.17.63.15.92.69.31.6.67 1.18.37.57.88 1.02.51.45 1.2.74.69.28 1.64.28 1.07 0 1.87-.35t1.33-.91q.54-.56.8-1.25t.26-1.39q0-.88-.18-1.6-.19-.73-.78-1.24-.6-.51-1.71-.79-1.12-.29-2.99-.29v-3q1.55-.01 2.57-.29 1.02-.27 1.62-.75.61-.49.85-1.17.23-.68.23-1.49 0-1.74-.97-2.64-.96-.9-2.58-.9-.75 0-1.38.21-.63.22-1.13.6-.5.38-.84.89-.34.51-.51 1.12-.29.79-.75 1.04-.47.26-1.32.12Zm20.3 8.07h7.48v-8.04q0-1.14.15-2.51l-7.63 10.55Zm11.13 0h3.1v2.44q0 .34-.23.58-.22.25-.63.25h-2.24v6h-3.65v-6h-10.37q-.43 0-.75-.26-.33-.27-.41-.66l-.44-2.12 11.64-15.56h3.98v15.33Zm11.73-11.5-.87 5.11q.82-.17 1.57-.24.75-.08 1.44-.08 1.94 0 3.42.58t2.48 1.6q1.01 1.02 1.51 2.38.51 1.37.51 2.95 0 1.96-.68 3.57-.69 1.62-1.92 2.77-1.22 1.14-2.89 1.77-1.68.63-3.65.63-1.16 0-2.19-.24-1.04-.23-1.95-.63-.91-.4-1.68-.92-.78-.52-1.39-1.1l1.29-1.78q.41-.58 1.07-.58.43 0 .87.27t1.01.6q.57.32 1.35.59.77.27 1.86.27 1.15 0 2.04-.37.88-.38 1.47-1.05.58-.67.88-1.59.3-.93.3-2.02 0-2.01-1.17-3.14-1.16-1.13-3.44-1.13-1.75 0-3.59.65l-2.61-.75 2.04-11.93h12.14v1.78q0 .9-.57 1.46-.56.57-1.9.57h-6.75Z"/></svg>