<svg xmlns="http://www.w3.org/2000/svg" width="270" height="260" viewBox="0 0 270 260"><rect width="100%" height="100%" fill="#DDDDDD"/><path fill="#999999" d="M63.915 138.875h6.68q.72 0 1.14.4.43.41.43 1.08v2.66h-17.86v-1.48q0-.45.19-.94.19-.5.6-.89l7.9-7.92q.99-1.01 1.78-1.93.78-.92 1.3-1.82t.8-1.82q.28-.93.28-1.96 0-.93-.27-1.64-.27-.71-.76-1.2-.5-.49-1.19-.73t-1.56-.24q-.79 0-1.47.22-.67.23-1.19.63-.52.41-.88.95t-.54 1.19q-.31.82-.8 1.09-.48.27-1.4.13l-2.34-.41q.27-1.88 1.04-3.29.78-1.41 1.94-2.36 1.16-.94 2.66-1.42 1.51-.48 3.23-.48 1.8 0 3.3.53 1.49.54 2.55 1.51 1.07.97 1.66 2.34.59 1.37.59 3.04 0 1.44-.42 2.66-.42 1.23-1.13 2.34-.71 1.12-1.67 2.16-.95 1.05-2 2.13l-5.86 5.99q.84-.25 1.68-.39.84-.13 1.59-.13Zm11.58-21.89h17.98v1.93q0 .86-.18 1.39-.18.53-.36.89l-9.87 20.31q-.3.63-.86 1.07-.56.44-1.49.44h-3.23l10.07-19.89q.34-.61.67-1.13.33-.51.75-.98h-12.46q-.41 0-.72-.3-.3-.31-.3-.72v-3.01Zm39.18 13.02q0 3.4-.73 5.91-.73 2.51-2.01 4.15-1.29 1.64-3.04 2.44-1.76.8-3.79.8-2.04 0-3.77-.8-1.74-.8-3.02-2.44t-2-4.15q-.72-2.51-.72-5.91 0-3.42.72-5.93.72-2.5 2-4.14 1.28-1.63 3.02-2.44 1.73-.8 3.77-.8 2.03 0 3.79.8 1.75.81 3.04 2.44 1.28 1.64 2.01 4.14.73 2.51.73 5.93Zm-4.59 0q0-2.83-.41-4.68-.42-1.86-1.11-2.96-.69-1.09-1.59-1.54-.9-.44-1.87-.44-.96 0-1.85.44-.89.45-1.57 1.54-.69 1.1-1.09 2.96-.41 1.85-.41 4.68 0 2.82.41 4.68.4 1.85 1.09 2.95.68 1.1 1.57 1.54.89.44 1.85.44.97 0 1.87-.44.9-.44 1.59-1.54.69-1.1 1.11-2.95.41-1.86.41-4.68Zm33.18 7.05-2.36 2.32-6.1-6.1-6.16 6.14-2.36-2.32 6.16-6.18-5.87-5.86 2.34-2.34 5.87 5.86 5.83-5.83 2.38 2.34-5.85 5.85 6.12 6.12Zm21.67 1.82h6.68q.72 0 1.14.4.42.41.42 1.08v2.66h-17.85v-1.48q0-.45.19-.94.18-.5.6-.89l7.9-7.92q.99-1.01 1.77-1.93.79-.92 1.31-1.82t.8-1.82q.28-.93.28-1.96 0-.93-.27-1.64-.27-.71-.77-1.2-.49-.49-1.18-.73-.7-.24-1.56-.24-.79 0-1.47.22-.67.23-1.2.63-.52.41-.88.95t-.54 1.19q-.3.82-.79 1.09-.49.27-1.4.13l-2.34-.41q.27-1.88 1.04-3.29.77-1.41 1.94-2.36 1.16-.94 2.66-1.42 1.5-.48 3.23-.48 1.8 0 3.29.53 1.5.54 2.56 1.51t1.66 2.34q.59 1.37.59 3.04 0 1.44-.42 2.66-.43 1.23-1.14 2.34-.71 1.12-1.66 2.16-.96 1.05-2 2.13l-5.87 5.99q.85-.25 1.69-.39.83-.13 1.59-.13Zm27.02-21.89-7.73 9.45-.9 1.12q.76-.38 1.63-.59.88-.2 1.88-.2 1.48 0 2.88.48 1.39.49 2.45 1.47 1.06.98 1.71 2.44.65 1.46.65 3.4 0 1.82-.67 3.41-.66 1.59-1.87 2.78-1.2 1.19-2.9 1.87-1.71.69-3.76.69-2.09 0-3.74-.67-1.66-.66-2.83-1.86-1.17-1.2-1.79-2.88-.62-1.68-.62-3.74 0-1.83.75-3.77.74-1.93 2.31-4.02l6.21-8.33q.32-.44.95-.74.62-.31 1.43-.31h3.96Zm-6.72 22.68q1.06 0 1.96-.36.89-.36 1.53-1.01.63-.64.99-1.52.36-.87.36-1.9 0-1.11-.34-2-.34-.89-.97-1.52-.63-.62-1.51-.94-.88-.32-1.95-.32-1.06 0-1.92.36-.87.36-1.48.99-.61.64-.95 1.52-.34.87-.34 1.88 0 1.08.29 1.97.3.89.89 1.52.58.63 1.44.98.87.35 2 .35Zm30.46-9.66q0 3.4-.73 5.91-.73 2.51-2.02 4.15-1.28 1.64-3.04 2.44-1.75.8-3.79.8-2.03 0-3.77-.8-1.74-.8-3.01-2.44-1.28-1.64-2-4.15-.72-2.51-.72-5.91 0-3.42.72-5.93.72-2.5 2-4.14 1.27-1.63 3.01-2.44 1.74-.8 3.77-.8 2.04 0 3.79.8 1.76.81 3.04 2.44 1.29 1.64 2.02 4.14.73 2.51.73 5.93Zm-4.59 0q0-2.83-.42-4.68-.41-1.86-1.1-2.96-.7-1.09-1.6-1.54-.9-.44-1.87-.44-.95 0-1.84.44-.89.45-1.58 1.54-.68 1.1-1.09 2.96-.4 1.85-.4 4.68 0 2.82.4 4.68.41 1.85 1.09 2.95.69 1.1 1.58 1.54.89.44 1.84.44.97 0 1.87-.44.9-.44 1.6-1.54.69-1.1 1.1-2.95.42-1.86.42-4.68Z"/></svg>