<svg xmlns="http://www.w3.org/2000/svg" width="530" height="430" viewBox="0 0 530 430"><rect width="100%" height="100%" fill="#DDDDDD"/><path fill="#999999" d="m121.235 197.535-1.78 10.53q1.68-.35 3.22-.5 1.54-.16 2.97-.16 3.99 0 7.04 1.19 3.04 1.19 5.11 3.29 2.06 2.1 3.11 4.92 1.05 2.81 1.05 6.07 0 4.02-1.41 7.35-1.42 3.32-3.94 5.69-2.52 2.36-5.97 3.65-3.45 1.3-7.51 1.3-2.38 0-4.51-.49-2.14-.49-4.01-1.31-1.87-.83-3.46-1.89-1.6-1.07-2.86-2.26l2.66-3.68q.84-1.19 2.21-1.19.87 0 1.78.56t2.09 1.23q1.17.66 2.76 1.22 1.59.56 3.83.56 2.38 0 4.2-.77 1.82-.77 3.03-2.15 1.21-1.38 1.82-3.29.61-1.91.61-4.15 0-4.13-2.39-6.45-2.4-2.33-7.09-2.33-3.61 0-7.39 1.33l-5.39-1.54 4.2-24.57h24.99v3.67q0 1.86-1.15 3.01-1.16 1.16-3.92 1.16h-13.9Zm32.94 7.07-4.55-.81q.52-3.64 2.03-6.38 1.5-2.75 3.76-4.59 2.26-1.84 5.18-2.76 2.92-.93 6.28-.93 3.5 0 6.32 1 2.82.99 4.81 2.76 2 1.77 3.07 4.15 1.06 2.38 1.06 5.14 0 2.42-.54 4.26-.54 1.83-1.56 3.2-1.01 1.36-2.52 2.31-1.5.94-3.39 1.57 4.55 1.44 6.79 4.38t2.24 7.38q0 3.78-1.4 6.69-1.4 2.9-3.78 4.88t-5.51 2.99q-3.14 1.02-6.64 1.02-3.81 0-6.65-.88-2.83-.87-4.93-2.59-2.1-1.71-3.57-4.2-1.47-2.48-2.52-5.74l3.81-1.57q1.51-.63 2.82-.33 1.31.29 1.91 1.41.63 1.23 1.38 2.42.75 1.19 1.8 2.12 1.05.92 2.47 1.5 1.42.58 3.38.58 2.2 0 3.85-.72 1.64-.72 2.75-1.87 1.1-1.16 1.64-2.57.54-1.42.54-2.86 0-1.82-.38-3.3-.39-1.49-1.61-2.54-1.23-1.05-3.52-1.65-2.29-.59-6.14-.59v-6.16q3.18-.04 5.28-.6 2.1-.56 3.35-1.55 1.24-1 1.73-2.4t.49-3.08q0-3.57-2-5.43-1.99-1.85-5.32-1.85-1.54 0-2.83.44-1.3.43-2.33 1.22t-1.73 1.84q-.7 1.05-1.05 2.31-.6 1.61-1.56 2.13-.96.53-2.71.25Zm71.12 10.39q0 6.62-1.42 11.5t-3.92 8.07q-2.5 3.18-5.91 4.74-3.42 1.56-7.37 1.56-3.96 0-7.33-1.56-3.38-1.56-5.87-4.74-2.48-3.19-3.88-8.07-1.4-4.88-1.4-11.5 0-6.65 1.4-11.51 1.4-4.87 3.88-8.05 2.49-3.19 5.87-4.74 3.37-1.56 7.33-1.56 3.95 0 7.37 1.56 3.41 1.55 5.91 4.74 2.5 3.18 3.92 8.05 1.42 4.86 1.42 11.51Zm-8.93 0q0-5.49-.8-9.1-.81-3.6-2.15-5.74-1.35-2.13-3.1-2.99-1.75-.86-3.64-.86-1.86 0-3.59.86-1.73.86-3.06 2.99-1.33 2.14-2.12 5.74-.79 3.61-.79 9.1 0 5.5.79 9.1.79 3.61 2.12 5.74 1.33 2.14 3.06 3 1.73.85 3.59.85 1.89 0 3.64-.85 1.75-.86 3.1-3 1.34-2.13 2.15-5.74.8-3.6.8-9.1Zm64.51 13.72-4.59 4.52-11.86-11.87-11.97 11.94-4.59-4.52 11.97-12-11.41-11.41 4.55-4.55 11.41 11.41 11.34-11.34 4.62 4.55-11.37 11.37 11.9 11.9Zm30.31-7.49h15.4v-16.55q0-2.35.31-5.18l-15.71 21.73Zm22.92 0h6.37v5.01q0 .7-.45 1.21-.46.5-1.3.5h-4.62v12.36h-7.52v-12.36h-21.35q-.88 0-1.54-.54-.67-.54-.84-1.35l-.91-4.37 23.97-32.03h8.19v31.57Zm16.49-16.62-4.55-.81q.52-3.64 2.03-6.38 1.5-2.75 3.76-4.59 2.26-1.84 5.18-2.76 2.92-.93 6.28-.93 3.5 0 6.32 1 2.82.99 4.81 2.76 2 1.77 3.07 4.15 1.06 2.38 1.06 5.14 0 2.42-.54 4.26-.54 1.83-1.56 3.2-1.01 1.36-2.52 2.31-1.5.94-3.39 1.57 4.55 1.44 6.79 4.38t2.24 7.38q0 3.78-1.4 6.69-1.4 2.9-3.78 4.88t-5.51 2.99q-3.14 1.02-6.64 1.02-3.81 0-6.65-.88-2.83-.87-4.93-2.59-2.1-1.71-3.57-4.2-1.47-2.48-2.52-5.74l3.81-1.57q1.51-.63 2.82-.33 1.31.29 1.91 1.41.63 1.23 1.38 2.42.75 1.19 1.8 2.12 1.05.92 2.47 1.5 1.42.58 3.38.58 2.2 0 3.85-.72 1.64-.72 2.75-1.87 1.1-1.16 1.64-2.57.54-1.42.54-2.86 0-1.82-.38-3.3-.39-1.49-1.61-2.54-1.23-1.05-3.52-1.65-2.29-.59-6.14-.59v-6.16q3.18-.04 5.28-.6 2.1-.56 3.35-1.55 1.24-1 1.73-2.4t.49-3.08q0-3.57-2-5.43-1.99-1.85-5.32-1.85-1.54 0-2.83.44-1.3.43-2.33 1.22t-1.73 1.84q-.7 1.05-1.05 2.31-.6 1.61-1.56 2.13-.96.53-2.71.25Zm71.12 10.39q0 6.62-1.42 11.5t-3.92 8.07q-2.5 3.18-5.91 4.74-3.42 1.56-7.37 1.56-3.96 0-7.33-1.56-3.38-1.56-5.87-4.74-2.48-3.19-3.88-8.07-1.4-4.88-1.4-11.5 0-6.65 1.4-11.51 1.4-4.87 3.88-8.05 2.49-3.19 5.87-4.74 3.37-1.56 7.33-1.56 3.95 0 7.37 1.56 3.41 1.55 5.91 4.74 2.5 3.18 3.92 8.05 1.42 4.86 1.42 11.51Zm-8.92 0q0-5.49-.81-9.1-.81-3.6-2.15-5.74-1.35-2.13-3.1-2.99-1.75-.86-3.64-.86-1.86 0-3.59.86-1.73.86-3.06 2.99-1.33 2.14-2.12 5.74-.78 3.61-.78 9.1 0 5.5.78 9.1.79 3.61 2.12 5.74 1.33 2.14 3.06 3 1.73.85 3.59.85 1.89 0 3.64-.85 1.75-.86 3.1-3 1.34-2.13 2.15-5.74.81-3.6.81-9.1Z"/></svg>